<?xml version="1.0" encoding="utf-8"?><!-- Uploaded to: SVG Repo, www.svgrepo.com, Generator: SVG Repo Mixer Tools -->
<svg width="800px" height="800px" viewBox="0 0 24 24" fill="#000000" xmlns="http://www.w3.org/2000/svg">
<path d="M12 21.75C10.0716 21.75 8.18657 21.1782 6.58319 20.1068C4.97981 19.0355 3.73013 17.5127 2.99217 15.7312C2.25422 13.9496 2.06113 11.9892 2.43734 10.0979C2.81355 8.20656 3.74214 6.46928 5.10571 5.10571C6.46927 3.74215 8.20655 2.81355 10.0979 2.43735C11.9892 2.06114 13.9496 2.25422 15.7312 2.99218C17.5127 3.73013 19.0355 4.97982 20.1068 6.58319C21.1782 8.18657 21.75 10.0716 21.75 12C21.7473 14.5851 20.7193 17.0635 18.8914 18.8914C17.0635 20.7193 14.585 21.7474 12 21.75ZM12 3.75C10.3683 3.75 8.77325 4.23386 7.41654 5.14038C6.05984 6.0469 5.00241 7.33538 4.37799 8.84287C3.75357 10.3504 3.59019 12.0092 3.90852 13.6095C4.22685 15.2098 5.01258 16.6799 6.16637 17.8336C7.32015 18.9874 8.79016 19.7732 10.3905 20.0915C11.9908 20.4098 13.6496 20.2464 15.1571 19.622C16.6646 18.9976 17.9531 17.9402 18.8596 16.5835C19.7661 15.2268 20.25 13.6317 20.25 12C20.2474 9.81278 19.3773 7.7159 17.8307 6.1693C16.2841 4.62269 14.1872 3.75265 12 3.75Z" fill="#000000"/>
<path d="M8.27 16.7C8.08014 16.6981 7.89787 16.6252 7.75907 16.4956C7.62026 16.3661 7.53498 16.1893 7.52 16V12.63C7.52 12.4311 7.59901 12.2403 7.73967 12.0997C7.88032 11.959 8.07108 11.88 8.27 11.88C8.46891 11.88 8.65967 11.959 8.80033 12.0997C8.94098 12.2403 9.02 12.4311 9.02 12.63V16C9.00729 16.1901 8.9227 16.3683 8.7834 16.4983C8.6441 16.6283 8.46054 16.7004 8.27 16.7Z" fill="#000000"/>
<path d="M12 16.7C11.8019 16.6974 11.6126 16.6175 11.4725 16.4775C11.3324 16.3374 11.2526 16.1481 11.25 15.95V8.04999C11.25 7.85108 11.329 7.66031 11.4697 7.51966C11.6103 7.37901 11.8011 7.29999 12 7.29999C12.1989 7.29999 12.3897 7.37901 12.5303 7.51966C12.671 7.66031 12.75 7.85108 12.75 8.04999V16C12.735 16.1893 12.6497 16.3661 12.5109 16.4956C12.3721 16.6252 12.1899 16.6981 12 16.7Z" fill="#000000"/>
<path d="M15.73 16.7C15.5429 16.6954 15.3643 16.6211 15.2293 16.4916C15.0942 16.362 15.0124 16.1867 15 16V10.81C15 10.6111 15.079 10.4203 15.2197 10.2797C15.3603 10.139 15.5511 10.06 15.75 10.06C15.9489 10.06 16.1397 10.139 16.2803 10.2797C16.421 10.4203 16.5 10.6111 16.5 10.81V16C16.4848 16.1927 16.3966 16.3724 16.2536 16.5025C16.1105 16.6325 15.9233 16.7031 15.73 16.7Z" fill="#000000"/>
</svg>